<svg xmlns="http://www.w3.org/2000/svg" xmlns:xlink="http://www.w3.org/1999/xlink" contentStyleType="text/css" data-diagram-type="SEQUENCE" height="1058px" preserveAspectRatio="none" style="width:826px;height:1058px;background:#FEFEFE;" version="1.1" viewBox="0 0 826 1058" width="826px" zoomAndPan="magnify"><title>Lock Coupon - Optional Demo/Testing Feature</title><defs/><g><rect fill="#FEFEFE" height="1058" style="stroke:none;stroke-width:1;" width="826" x="0" y="0"/><text fill="#000000" font-family="sans-serif" font-size="14" font-weight="bold" lengthAdjust="spacing" textLength="340.9561" x="243.8877" y="28.5352">Lock Coupon - Optional Demo/Testing Feature</text><g><title>API</title><rect fill="#FFFFFF" height="674.3633" style="stroke:#181818;stroke-width:1;" width="10" x="274.3237" y="165.5977"/></g><g><title>RedemptionService</title><rect fill="#FFFFFF" height="645.0527" style="stroke:#181818;stroke-width:1;" width="10" x="475.2183" y="194.9082"/></g><g><title>PostgreSQL</title><rect fill="#FFFFFF" height="89.2422" style="stroke:#181818;stroke-width:1;" width="10" x="753.3066" y="654.7871"/></g><rect fill="none" height="476.1895" style="stroke:#000000;stroke-width:1.5;" width="809.7314" x="10" y="356.7715"/><rect fill="none" height="341.9922" style="stroke:#000000;stroke-width:1.5;" width="789.7314" x="20" y="483.9688"/><g><title>User</title><rect fill="#000000" fill-opacity="0.00000" height="858.1582" width="8" x="44.1826" y="118.9766"/><line style="stroke:#181818;stroke-width:0.5;stroke-dasharray:5,5;" x1="48" x2="48" y1="118.9766" y2="977.1348"/></g><g><title>API</title><rect fill="#000000" fill-opacity="0.00000" height="858.1582" width="8" x="275.3237" y="118.9766"/><line style="stroke:#181818;stroke-width:0.5;stroke-dasharray:5,5;" x1="278.6084" x2="278.6084" y1="118.9766" y2="977.1348"/></g><g><title>RedemptionService</title><rect fill="#000000" fill-opacity="0.00000" height="858.1582" width="8" x="476.2183" y="118.9766"/><line style="stroke:#181818;stroke-width:0.5;stroke-dasharray:5,5;" x1="479.6938" x2="479.6938" y1="118.9766" y2="977.1348"/></g><g><title>PostgreSQL</title><rect fill="#000000" fill-opacity="0.00000" height="858.1582" width="8" x="754.3066" y="118.9766"/><line style="stroke:#181818;stroke-width:0.5;stroke-dasharray:5,5;" x1="757.8818" x2="757.8818" y1="118.9766" y2="977.1348"/></g><g class="participant participant-head" data-participant="User"><text fill="#000000" font-family="sans-serif" font-size="14" lengthAdjust="spacing" textLength="30.3652" x="30" y="116.0234">User</text><ellipse cx="48.1826" cy="50.9883" fill="#E2E2F0" rx="8" ry="8" style="stroke:#181818;stroke-width:0.5;"/><path d="M48.1826,58.9883 L48.1826,85.9883 M35.1826,66.9883 L61.1826,66.9883 M48.1826,85.9883 L35.1826,100.9883 M48.1826,85.9883 L61.1826,100.9883" fill="none" style="stroke:#181818;stroke-width:0.5;"/></g><g class="participant participant-tail" data-participant="User"><text fill="#000000" font-family="sans-serif" font-size="14" lengthAdjust="spacing" textLength="30.3652" x="30" y="989.6699">User</text><ellipse cx="48.1826" cy="1001.123" fill="#E2E2F0" rx="8" ry="8" style="stroke:#181818;stroke-width:0.5;"/><path d="M48.1826,1009.123 L48.1826,1036.123 M35.1826,1017.123 L61.1826,1017.123 M48.1826,1036.123 L35.1826,1051.123 M48.1826,1036.123 L61.1826,1051.123" fill="none" style="stroke:#181818;stroke-width:0.5;"/></g><g class="participant participant-head" data-participant="API"><rect fill="#E2E2F0" height="30.4883" rx="2.5" ry="2.5" style="stroke:#181818;stroke-width:0.5;" width="35.4307" x="261.6084" y="87.4883"/><text fill="#000000" font-family="sans-serif" font-size="14" lengthAdjust="spacing" textLength="21.4307" x="268.6084" y="108.0234">API</text></g><g class="participant participant-tail" data-participant="API"><rect fill="#E2E2F0" height="30.4883" rx="2.5" ry="2.5" style="stroke:#181818;stroke-width:0.5;" width="35.4307" x="261.6084" y="976.1348"/><text fill="#000000" font-family="sans-serif" font-size="14" lengthAdjust="spacing" textLength="21.4307" x="268.6084" y="996.6699">API</text></g><g class="participant participant-head" data-participant="Service"><rect fill="#E2E2F0" height="30.4883" rx="2.5" ry="2.5" style="stroke:#181818;stroke-width:0.5;" width="143.0488" x="408.6938" y="87.4883"/><text fill="#000000" font-family="sans-serif" font-size="14" lengthAdjust="spacing" textLength="129.0488" x="415.6938" y="108.0234">RedemptionService</text></g><g class="participant participant-tail" data-participant="Service"><rect fill="#E2E2F0" height="30.4883" rx="2.5" ry="2.5" style="stroke:#181818;stroke-width:0.5;" width="143.0488" x="408.6938" y="976.1348"/><text fill="#000000" font-family="sans-serif" font-size="14" lengthAdjust="spacing" textLength="129.0488" x="415.6938" y="996.6699">RedemptionService</text></g><g class="participant participant-head" data-participant="DB"><text fill="#000000" font-family="sans-serif" font-size="14" lengthAdjust="spacing" textLength="76.8496" x="716.8818" y="116.0234">PostgreSQL</text><path d="M740.3066,66.4883 C740.3066,56.4883 758.3066,56.4883 758.3066,56.4883 C758.3066,56.4883 776.3066,56.4883 776.3066,66.4883 L776.3066,92.4883 C776.3066,102.4883 758.3066,102.4883 758.3066,102.4883 C758.3066,102.4883 740.3066,102.4883 740.3066,92.4883 L740.3066,66.4883" fill="#E2E2F0" style="stroke:#181818;stroke-width:0.5;"/><path d="M740.3066,66.4883 C740.3066,76.4883 758.3066,76.4883 758.3066,76.4883 C758.3066,76.4883 776.3066,76.4883 776.3066,66.4883" fill="none" style="stroke:#181818;stroke-width:0.5;"/></g><g class="participant participant-tail" data-participant="DB"><text fill="#000000" font-family="sans-serif" font-size="14" lengthAdjust="spacing" textLength="76.8496" x="716.8818" y="989.6699">PostgreSQL</text><path d="M740.3066,1002.623 C740.3066,992.623 758.3066,992.623 758.3066,992.623 C758.3066,992.623 776.3066,992.623 776.3066,1002.623 L776.3066,1028.623 C776.3066,1038.623 758.3066,1038.623 758.3066,1038.623 C758.3066,1038.623 740.3066,1038.623 740.3066,1028.623 L740.3066,1002.623" fill="#E2E2F0" style="stroke:#181818;stroke-width:0.5;"/><path d="M740.3066,1002.623 C740.3066,1012.623 758.3066,1012.623 758.3066,1012.623 C758.3066,1012.623 776.3066,1012.623 776.3066,1002.623" fill="none" style="stroke:#181818;stroke-width:0.5;"/></g><g><title>API</title><rect fill="#FFFFFF" height="674.3633" style="stroke:#181818;stroke-width:1;" width="10" x="274.3237" y="165.5977"/></g><g><title>RedemptionService</title><rect fill="#FFFFFF" height="645.0527" style="stroke:#181818;stroke-width:1;" width="10" x="475.2183" y="194.9082"/></g><g><title>PostgreSQL</title><rect fill="#FFFFFF" height="89.2422" style="stroke:#181818;stroke-width:1;" width="10" x="753.3066" y="654.7871"/></g><g class="message" data-participant-1="User" data-participant-2="API"><polygon fill="#181818" points="262.3237,161.5977,272.3237,165.5977,262.3237,169.5977,266.3237,165.5977" style="stroke:#181818;stroke-width:1;"/><line style="stroke:#181818;stroke-width:1;" x1="48.1826" x2="268.3237" y1="165.5977" y2="165.5977"/><text fill="#000000" font-family="sans-serif" font-size="13" lengthAdjust="spacing" textLength="175.1699" x="73.6682" y="145.5449">POST /coupons/lock/{code}</text><text fill="#000000" font-family="sans-serif" font-size="13" lengthAdjust="spacing" textLength="54.1519" x="134.1772" y="160.8555">{user_id}</text></g><g class="message" data-participant-1="API" data-participant-2="Service"><polygon fill="#181818" points="463.2183,190.9082,473.2183,194.9082,463.2183,198.9082,467.2183,194.9082" style="stroke:#181818;stroke-width:1;"/><line style="stroke:#181818;stroke-width:1;" x1="284.3237" x2="469.2183" y1="194.9082" y2="194.9082"/><text fill="#000000" font-family="sans-serif" font-size="13" lengthAdjust="spacing" textLength="171.8945" x="293.8237" y="190.166">lock_coupon(code, user_id)</text></g><g class="message" data-participant-1="Service" data-participant-2="DB"><polygon fill="#181818" points="746.3066,235.5293,756.3066,239.5293,746.3066,243.5293,750.3066,239.5293" style="stroke:#181818;stroke-width:1;"/><line style="stroke:#181818;stroke-width:1;" x1="485.2183" x2="752.3066" y1="239.5293" y2="239.5293"/><text fill="#000000" font-family="sans-serif" font-size="13" lengthAdjust="spacing" textLength="96.3003" x="573.6123" y="219.4766">SELECT coupon</text><text fill="#000000" font-family="sans-serif" font-size="13" lengthAdjust="spacing" textLength="101.2134" x="571.1558" y="234.7871">WHERE code = ?</text></g><g class="message" data-participant-1="DB" data-participant-2="Service"><polygon fill="#181818" points="496.2183,264.8398,486.2183,268.8398,496.2183,272.8398,492.2183,268.8398" style="stroke:#181818;stroke-width:1;"/><line style="stroke:#181818;stroke-width:1;stroke-dasharray:2,2;" x1="490.2183" x2="757.3066" y1="268.8398" y2="268.8398"/><text fill="#000000" font-family="sans-serif" font-size="13" lengthAdjust="spacing" textLength="49.2832" x="597.1208" y="264.0977">Coupon</text></g><g class="message" data-participant-1="Service" data-participant-2="Service"><line style="stroke:#181818;stroke-width:1;" x1="485.2183" x2="527.2183" y1="328.7715" y2="328.7715"/><line style="stroke:#181818;stroke-width:1;" x1="527.2183" x2="527.2183" y1="328.7715" y2="341.7715"/><line style="stroke:#181818;stroke-width:1;" x1="486.2183" x2="527.2183" y1="341.7715" y2="341.7715"/><polygon fill="#181818" points="496.2183,337.7715,486.2183,341.7715,496.2183,345.7715,492.2183,341.7715" style="stroke:#181818;stroke-width:1;"/><text fill="#000000" font-family="sans-serif" font-size="13" lengthAdjust="spacing" textLength="54.7739" x="538.8228" y="293.4082">Validate:</text><text fill="#000000" font-family="sans-serif" font-size="13" lengthAdjust="spacing" textLength="147.9829" x="492.2183" y="308.7188">- Valid state transition?</text><text fill="#000000" font-family="sans-serif" font-size="13" lengthAdjust="spacing" textLength="134.875" x="498.7722" y="324.0293">- Not already locked?</text></g><path d="M10,356.7715 L72.1387,356.7715 L72.1387,364.082 L62.1387,374.082 L10,374.082 L10,356.7715" fill="#EEEEEE" style="stroke:#000000;stroke-width:1.5;"/><rect fill="none" height="476.1895" style="stroke:#000000;stroke-width:1.5;" width="809.7314" x="10" y="356.7715"/><text fill="#000000" font-family="sans-serif" font-size="13" font-weight="bold" lengthAdjust="spacing" textLength="17.1387" x="25" y="370.3398">alt</text><text fill="#000000" font-family="sans-serif" font-size="11" font-weight="bold" lengthAdjust="spacing" textLength="102.7974" x="87.1387" y="369.4063">[Validation Failed]</text><g class="message" data-participant-1="Service" data-participant-2="API"><polygon fill="#181818" points="295.3237,391.3926,285.3237,395.3926,295.3237,399.3926,291.3237,395.3926" style="stroke:#181818;stroke-width:1;"/><line style="stroke:#181818;stroke-width:1;stroke-dasharray:2,2;" x1="289.3237" x2="474.2183" y1="395.3926" y2="395.3926"/><text fill="#000000" font-family="sans-serif" font-size="13" lengthAdjust="spacing" textLength="125.0044" x="317.2688" y="390.6504">ValidationException</text></g><g class="message" data-participant-1="API" data-participant-2="User"><polygon fill="#181818" points="59.1826,420.7031,49.1826,424.7031,59.1826,428.7031,55.1826,424.7031" style="stroke:#181818;stroke-width:1;"/><line style="stroke:#181818;stroke-width:1;stroke-dasharray:2,2;" x1="53.1826" x2="273.3237" y1="424.7031" y2="424.7031"/><text fill="#000000" font-family="sans-serif" font-size="13" lengthAdjust="spacing" textLength="91.2412" x="115.6326" y="419.9609">400/403 Error</text></g><line style="stroke:#000000;stroke-width:1;stroke-dasharray:2,2;" x1="10" x2="819.7314" y1="433.7031" y2="433.7031"/><text fill="#000000" font-family="sans-serif" font-size="11" font-weight="bold" lengthAdjust="spacing" textLength="108.5122" x="15" y="444.3379">[Validation Passed]</text><g class="message" data-participant-1="Service" data-participant-2="DB"><polygon fill="#181818" points="746.3066,464.9688,756.3066,468.9688,746.3066,472.9688,750.3066,468.9688" style="stroke:#181818;stroke-width:1;"/><line style="stroke:#181818;stroke-width:1;" x1="485.2183" x2="752.3066" y1="468.9688" y2="468.9688"/><text fill="#000000" font-family="sans-serif" font-size="13" font-weight="bold" lengthAdjust="spacing" textLength="249.0884" x="497.2183" y="464.2266">pg_try_advisory_lock(hashtext(code))</text></g><path d="M20,483.9688 L82.1387,483.9688 L82.1387,491.2793 L72.1387,501.2793 L20,501.2793 L20,483.9688" fill="#EEEEEE" style="stroke:#000000;stroke-width:1.5;"/><rect fill="none" height="341.9922" style="stroke:#000000;stroke-width:1.5;" width="789.7314" x="20" y="483.9688"/><text fill="#000000" font-family="sans-serif" font-size="13" font-weight="bold" lengthAdjust="spacing" textLength="17.1387" x="35" y="497.5371">alt</text><text fill="#000000" font-family="sans-serif" font-size="11" font-weight="bold" lengthAdjust="spacing" textLength="125.4634" x="97.1387" y="496.6035">[Advisory Lock Failed]</text><g class="message" data-participant-1="DB" data-participant-2="Service"><polygon fill="#181818" points="496.2183,518.5898,486.2183,522.5898,496.2183,526.5898,492.2183,522.5898" style="stroke:#181818;stroke-width:1;"/><line style="stroke:#181818;stroke-width:1;stroke-dasharray:2,2;" x1="490.2183" x2="757.3066" y1="522.5898" y2="522.5898"/><text fill="#000000" font-family="sans-serif" font-size="13" lengthAdjust="spacing" textLength="162.8428" x="540.3411" y="517.8477">FALSE (concurrent access)</text></g><g class="message" data-participant-1="Service" data-participant-2="API"><polygon fill="#181818" points="295.3237,547.9004,285.3237,551.9004,295.3237,555.9004,291.3237,551.9004" style="stroke:#181818;stroke-width:1;"/><line style="stroke:#181818;stroke-width:1;stroke-dasharray:2,2;" x1="289.3237" x2="474.2183" y1="551.9004" y2="551.9004"/><text fill="#000000" font-family="sans-serif" font-size="13" lengthAdjust="spacing" textLength="155.6572" x="301.9424" y="547.1582">CouponLockedException</text></g><g class="message" data-participant-1="API" data-participant-2="User"><polygon fill="#181818" points="59.1826,577.2109,49.1826,581.2109,59.1826,585.2109,55.1826,581.2109" style="stroke:#181818;stroke-width:1;"/><line style="stroke:#181818;stroke-width:1;stroke-dasharray:2,2;" x1="53.1826" x2="273.3237" y1="581.2109" y2="581.2109"/><text fill="#000000" font-family="sans-serif" font-size="13" lengthAdjust="spacing" textLength="77.6382" x="122.4341" y="576.4688">409 Conflict</text></g><line style="stroke:#000000;stroke-width:1;stroke-dasharray:2,2;" x1="20" x2="809.7314" y1="590.2109" y2="590.2109"/><text fill="#000000" font-family="sans-serif" font-size="11" font-weight="bold" lengthAdjust="spacing" textLength="142.5703" x="25" y="600.8457">[Advisory Lock Acquired]</text><g class="message" data-participant-1="DB" data-participant-2="Service"><polygon fill="#181818" points="496.2183,621.4766,486.2183,625.4766,496.2183,629.4766,492.2183,625.4766" style="stroke:#181818;stroke-width:1;"/><line style="stroke:#181818;stroke-width:1;stroke-dasharray:2,2;" x1="490.2183" x2="757.3066" y1="625.4766" y2="625.4766"/><text fill="#000000" font-family="sans-serif" font-size="13" lengthAdjust="spacing" textLength="32.4937" x="605.5156" y="620.7344">TRUE</text></g><g class="message" data-participant-1="Service" data-participant-2="DB"><polygon fill="#181818" points="741.3066,650.7871,751.3066,654.7871,741.3066,658.7871,745.3066,654.7871" style="stroke:#181818;stroke-width:1;"/><line style="stroke:#181818;stroke-width:1;" x1="485.2183" x2="747.3066" y1="654.7871" y2="654.7871"/><text fill="#000000" font-family="sans-serif" font-size="13" lengthAdjust="spacing" textLength="133.0278" x="552.7485" y="650.0449">BEGIN TRANSACTION</text></g><g class="message" data-participant-1="Service" data-participant-2="DB"><polygon fill="#181818" points="741.3066,710.7188,751.3066,714.7188,741.3066,718.7188,745.3066,714.7188" style="stroke:#181818;stroke-width:1;"/><line style="stroke:#181818;stroke-width:1;" x1="485.2183" x2="747.3066" y1="714.7188" y2="714.7188"/><text fill="#000000" font-family="sans-serif" font-size="13" lengthAdjust="spacing" textLength="101.2261" x="568.6494" y="679.3555">UPDATE coupon</text><text fill="#000000" font-family="sans-serif" font-size="13" lengthAdjust="spacing" textLength="124.7378" x="556.8936" y="694.666">SET state='LOCKED'</text><text fill="#000000" font-family="sans-serif" font-size="13" lengthAdjust="spacing" textLength="194.9492" x="521.7878" y="709.9766">SET locked_until=NOW()+5min</text></g><g class="message" data-participant-1="Service" data-participant-2="DB"><polygon fill="#181818" points="746.3066,740.0293,756.3066,744.0293,746.3066,748.0293,750.3066,744.0293" style="stroke:#181818;stroke-width:1;"/><line style="stroke:#181818;stroke-width:1;" x1="485.2183" x2="752.3066" y1="744.0293" y2="744.0293"/><text fill="#000000" font-family="sans-serif" font-size="13" lengthAdjust="spacing" textLength="53.4536" x="595.0356" y="739.2871">COMMIT</text></g><g class="message" data-participant-1="Service" data-participant-2="API"><polygon fill="#181818" points="295.3237,769.3398,285.3237,773.3398,295.3237,777.3398,291.3237,773.3398" style="stroke:#181818;stroke-width:1;"/><line style="stroke:#181818;stroke-width:1;stroke-dasharray:2,2;" x1="289.3237" x2="474.2183" y1="773.3398" y2="773.3398"/><text fill="#000000" font-family="sans-serif" font-size="13" lengthAdjust="spacing" textLength="97.9951" x="330.7734" y="768.5977">Locked Coupon</text></g><g class="message" data-participant-1="API" data-participant-2="User"><polygon fill="#181818" points="59.1826,813.9609,49.1826,817.9609,59.1826,821.9609,55.1826,817.9609" style="stroke:#181818;stroke-width:1;"/><line style="stroke:#181818;stroke-width:1;stroke-dasharray:2,2;" x1="53.1826" x2="273.3237" y1="817.9609" y2="817.9609"/><text fill="#000000" font-family="sans-serif" font-size="13" lengthAdjust="spacing" textLength="47.3599" x="137.5732" y="797.9082">200 OK</text><text fill="#000000" font-family="sans-serif" font-size="13" lengthAdjust="spacing" textLength="202.1411" x="60.1826" y="813.2188">{state: "LOCKED", expires_at: ...}</text></g><path d="M20,844.9609 L20,961.9609 L784,961.9609 L784,854.9609 L774,844.9609 L20,844.9609" fill="#FEFFDD" style="stroke:#181818;stroke-width:0.5;"/><path d="M774,844.9609 L774,854.9609 L784,854.9609 L774,844.9609" fill="#FEFFDD" style="stroke:#181818;stroke-width:0.5;"/><text fill="#000000" font-family="sans-serif" font-size="13" font-weight="bold" lengthAdjust="spacing" textLength="112.4868" x="207.1536" y="862.5293">Important Notes:</text><text fill="#000000" font-family="sans-serif" font-size="13" lengthAdjust="spacing" textLength="60.1187" x="207.1536" y="877.8398">1. Lock is</text><text fill="#000000" font-family="sans-serif" font-size="13" font-weight="bold" lengthAdjust="spacing" textLength="69.7798" x="271.3855" y="877.8398">OPTIONAL</text><text fill="#000000" font-family="sans-serif" font-size="13" lengthAdjust="spacing" textLength="150.4395" x="345.2786" y="877.8398">- for demo/testing only</text><text fill="#000000" font-family="sans-serif" font-size="13" lengthAdjust="spacing" textLength="133.9863" x="207.1536" y="893.1504">2. Redemption works</text><text fill="#000000" font-family="sans-serif" font-size="13" font-weight="bold" lengthAdjust="spacing" textLength="51.3589" x="345.2532" y="893.1504">without</text><text fill="#000000" font-family="sans-serif" font-size="13" lengthAdjust="spacing" textLength="135.4019" x="400.7253" y="893.1504">lock (from ASSIGNED)</text><text fill="#000000" font-family="sans-serif" font-size="13" lengthAdjust="spacing" textLength="321.8516" x="207.1536" y="908.4609">3. Advisory lock prevents concurrent lock attempts</text><text fill="#000000" font-family="sans-serif" font-size="13" lengthAdjust="spacing" textLength="255.2646" x="207.1536" y="923.7715">4. 5-minute timeout prevents deadlocks</text><text fill="#000000" font-family="sans-serif" font-size="13" lengthAdjust="spacing" textLength="339.1172" x="207.1536" y="939.082">5. Can be unlocked manually or expires automatically</text><text fill="#000000" font-family="sans-serif" font-size="13" lengthAdjust="spacing" textLength="12.3335" x="207.1536" y="954.3926">6.</text><text fill="#000000" font-family="sans-serif" font-size="13" font-weight="bold" lengthAdjust="spacing" textLength="101.8164" x="223.6003" y="954.3926">Cannot redeem</text><text fill="#000000" font-family="sans-serif" font-size="13" lengthAdjust="spacing" textLength="259.0479" x="329.53" y="954.3926">while in LOCKED state (must unlock first)</text><!--SRC=[ZLHXJniv4FtkNp5AFpJ9aKtQGgMBHAibMTge8KdPq7v1Yipk42nsxTJs1b35Vx-nlMn8kRjs4M69tvjvysOyvbR83TUyX2kUtQwrgcG-KeNIyEeqSJ_CD0Y3FogK6PwXCNoDSI7M4ZAK5ZLZLjW2OQgoMnYfQgCaz62-iK99Ni0OIzLVeh52hk4KkQqqCiOpItak3D4fWHMPs71feHKl9YtW1kZl_i4vvbZwc2dghSZGm-ftbdFBhxX1Q2sKiMkDwTUf1unF67DPeFV1nOGXBERf4lgPrsdw1Odk_ynKZe-NycT5o9N87vqyiUKMlGxcYCIlar4Cnrg546t7FO2QsTandwIn9nf569yGEKscoMW9WNufltzEpXDmKU0OFZ96cDvUic3fNfpTuJTU22eUXvUo5_u1OrrwgxaqmldrqHtDb0LUQEJvWrUFEQNYXNqAG3WuvQB0d04zJQx6jXqkkS_GDy8ZlJU4yYOFuN0mw1yEta6YjT8C2sh9immBRiol6MfNkjtDUcNrmuhdMs4KlJYPxHjkRYpUMszpfzFjUhB_SEhZ6Xo6xra1xddXv6ayJHEWK3AhjARX1PvbDD2TXlAoxk3-r5ksN_c_Llyt4UHr8JBhCTw0VP5nzgCI-lzaBiylakRqfRJQi9FaqsH6s7YMngFbP3vhaCq8ql3_Dip5OXmlasOQqsGP1kZuzNG- -fACNuVlmioiAcb5SJoRVszt_ZegXVnz_D7yx6ooR8vp_3DrZV_1-QTBy1- -lnqCOFw5Bh2NFeHMqDuw0BpVaDbcnUqGeYXw35sHENE_x9cQPfFW_jsNYjxK5iEoEWYgkzr9kL7Qkir4DmlDq0_ccoYqM1X2p1UkAV6qswLjU4tBBdUBqDQBKCdYWHXl8zWjDhXJ-jPHxuIzKPKbfhCTsjTQbH2dwUJJB1cxONqNxORAGpOQjpJF1fxDjZ_WrhheXaY74Hprg6ULsmwYHCgmur7PkICuu5448oxX2g6IeUzGSbdnedW0ggEs57XbLKdtEdC7H7iVaNGYacD0yurOKW5tDtGbGKW87QcNKxkiZAsZmxNGndPSGy2PpVu1]--></g></svg>